<?xml version="1.0" standalone="no"?><!DOCTYPE svg PUBLIC "-//W3C//DTD SVG 1.1//EN" "http://www.w3.org/Graphics/SVG/1.1/DTD/svg11.dtd"><svg t="1741452109849" class="icon" viewBox="0 0 1024 1024" version="1.1" xmlns="http://www.w3.org/2000/svg" p-id="2508" xmlns:xlink="http://www.w3.org/1999/xlink" width="24" height="24"><path d="M219.424 18.304h530.272l201.152 219.424v768H219.424V18.304z" fill="#FFFFFF" p-id="2509"></path><path d="M733.696 253.728V50.304H251.424v923.424h667.424v-720h-185.152z m217.152-16v768H219.424V18.304h530.272l201.152 219.424z m-58.08-16l-127.04-138.624v138.624h127.04z" fill="#465F78" p-id="2510"></path><path d="M64 288a32 32 0 0 1 32-32h448a32 32 0 0 1 32 32v448a32 32 0 0 1-32 32H96a32 32 0 0 1-32-32V288zM640 416h224v37.344h-224V416zM640 509.344h224v37.312h-224v-37.312zM640 602.656h224V640h-224v-37.344z" fill="#FA7553" p-id="2511"></path><path d="M168.416 672H105.152l96.384-279.264h76.096L373.92 672H310.656L240.64 456.544h-2.176L168.416 672z m35.712-109.76h70.88l14.944 46.08h-100.8l14.976-46.08zM417.824 671.616v-174.528h48.416v174.528h-48.416z m24.32-197.024a26.304 26.304 0 0 1-18.56-7.168 23.232 23.232 0 0 1-7.584-17.376 22.72 22.72 0 0 1 7.616-17.184 26.08 26.08 0 0 1 18.528-7.264c7.2 0 13.312 2.432 18.4 7.264 5.152 4.8 7.744 10.496 7.744 17.184a23.04 23.04 0 0 1-7.744 17.376 25.92 25.92 0 0 1-18.4 7.168z" fill="#FFFFFF" p-id="2512"></path></svg>