<svg t="1742963391012" class="icon" viewBox="0 0 1024 1024" version="1.1" xmlns="http://www.w3.org/2000/svg" p-id="9816" width="32" height="32"><path d="M640 64a64 64 0 0 1 64 64v384c0 4.352-0.448 8.64-1.28 12.736a28.672 28.672 0 0 1-16.64-20.608l-0.512-5.76V396.864c-8.192-13.824-24.768-15.424-32.448-15.424l-3.2 0.128-2.944 0.32v116.48a28.928 28.928 0 0 1-57.472 5.184l-0.448-5.12V369.28c-6.016-20.864-26.88-23.168-35.52-23.168l-3.072 0.32v151.936a28.928 28.928 0 0 1-57.408 5.184l-0.448-5.12V325.952l-0.256-3.2v-63.36c0-13.12-4.608-24.896-12.48-31.616a39.552 39.552 0 0 0-55.04 2.688 45.12 45.12 0 0 0-12.544 23.36l-0.576 6.144v260.16a30.08 30.08 0 1 1-46.72 25.024l-4.608-3.84-40.512-40.512c-14.976-14.912-38.784-11.904-51.456-3.072l-4.16 3.52-2.56 3.008-3.776 5.376c-6.848 10.816-14.72 29.888-1.408 48.064l4.672 5.44 12.864 12.8H128a64 64 0 0 1-64-64V128a64 64 0 0 1 64-64h512z" fill="#2c2c2c" p-id="9817"></path><path d="M512 896v64H384v-64h128z m192 0v64H576v-64h128z m256-101.76v37.504a128 128 0 0 1-118.4 127.616l-9.6 0.384h-64v-64h64a64 64 0 0 0 64-64v-37.44l64-0.064z m-832 0h64v37.504a64 64 0 0 0 56.512 63.552l7.488 0.448h64v64H256l-9.6-0.384a128 128 0 0 1-118.016-117.632L128 831.744v-37.504zM640 64a64 64 0 0 1 64 64v64h128l9.6 0.32a128 128 0 0 1 118.016 117.632L960 320v37.504l-64-0.064V320a64 64 0 0 0-56.512-63.552L832 256h-128l0.128 80.64c9.344 5.44 17.536 12.352 24.32 20.48a28.8 28.8 0 0 1 5.12 3.712c7.488-1.408 14.592-1.792 19.712-1.792 26.432 0 50.56 10.432 67.968 29.12 16 17.28 24.832 39.936 25.472 64.704l-0.192 10.752-0.064 143.744-0.384 19.392-0.768 19.264-0.64 9.6-1.728 18.816a410.24 410.24 0 0 1-1.152 9.216l-2.944 18.24c-16.448 86.656-66.624 154.624-215.488 159.04l-15.744 0.256-16.96-0.256c-76.608-2.24-118.464-20.096-153.728-46.464l-7.424-5.76c-0.832-0.64-1.6-1.344-2.368-2.112l-2.688-1.792a95.68 95.68 0 0 1-7.68-5.504l-3.84-3.52-192.448-191.872a99.264 99.264 0 0 1-19.648-27.84L128 576a64 64 0 0 1-64-64V128a64 64 0 0 1 64-64h512zM319.872 500.864a36.288 36.288 0 0 0-23.424-10.304h-6.272a44.224 44.224 0 0 0-21.76 7.232l-4.16 3.52-2.56 3.008-3.776 5.376c-6.848 10.816-14.72 29.888-1.408 48.064l4.672 5.44 192.384 191.68 2.752 1.728c3.2 2.112 6.912 4.608 10.24 7.68 29.12 23.04 60.16 37.056 126.336 38.784l14.72 0.192 14.848-0.192c134.72-4.16 160.768-66.112 165.12-162.24l0.64-21.12 0.192-22.144V452.608a40.064 40.064 0 0 0-10.048-25.28 33.6 33.6 0 0 0-25.472-10.56l-5.12 0.192-4.288 0.64v80.768a28.928 28.928 0 0 1-57.472 5.184l-0.448-5.12V396.8c-8.192-13.824-24.768-15.424-32.448-15.424l-3.2 0.128-2.944 0.32v116.48a28.928 28.928 0 0 1-57.472 5.184l-0.448-5.12V369.28c-6.016-20.864-26.88-23.168-35.52-23.168l-3.072 0.32v151.936a28.928 28.928 0 0 1-57.472 4.736l-0.384-4.736V326.016l-0.256-3.2v-63.36c0-13.12-4.608-24.896-12.48-31.616a40.384 40.384 0 0 0-18.176-9.088l-6.4-0.768a40.64 40.64 0 0 0-30.464 12.544 45.12 45.12 0 0 0-12.544 23.36l-0.576 6.144v260.16a30.08 30.08 0 1 1-46.72 25.024l-4.608-3.84-40.512-40.512zM192 614.4v128H128v-128h64z m704-0.896h64v128l-64-0.064v-128z m0-192h64v128l-64-0.064v-128zM640 128H128v384h66.816a110.72 110.72 0 0 1 29.12-52.224c28.8-28.8 82.304-38.208 122.24-11.904l7.808 5.76V260.032c0-25.472 10.624-50.176 29.76-69.824a96.896 96.896 0 0 1 134.144-6.208c18.56 16 29.888 39.36 32.128 65.536l0.448 9.92v28.928h3.264c33.024 0 61.184 14.08 78.208 37.632A88.96 88.96 0 0 1 640 324.608V128z" fill="#2c2c2c" p-id="9818"></path></svg>