<svg t="1742961965059" class="icon" viewBox="0 0 1024 1024" version="1.1" xmlns="http://www.w3.org/2000/svg" p-id="5310" width="32" height="32"><path d="M515.2 823.68a30.08 30.08 0 0 1-22.4-9.6L220.8 542.72a32 32 0 0 1 45.44-45.44l248.96 248.96 248.96-248.96a32 32 0 0 1 45.44 45.44L537.6 814.08a30.08 30.08 0 0 1-22.4 9.6z" fill="black" p-id="5311"></path><path d="M515.2 804.48a32 32 0 0 1-32-32V100.48a32 32 0 0 1 64 0v672a32 32 0 0 1-32 32z" fill="black" p-id="5312"></path><path d="M970.24 977.28H60.16a32 32 0 0 1-32-32v-313.6a32.64 32.64 0 0 1 32-32 32 32 0 0 1 32 32v281.6h846.08v-281.6a32 32 0 0 1 64 0v313.6a32 32 0 0 1-32 32z" fill="black" p-id="5313"></path></svg>