<svg t="1773225500993" class="icon" viewBox="0 0 1061 1024" version="1.1" xmlns="http://www.w3.org/2000/svg" p-id="1692" width="24" height="24"><path d="M294.515 736.736h463.344v57.914h-463.344v-57.914zM292.968 620.33h463.344v57.914h-463.344v-57.914zM292.968 504.502h463.344v57.914h-463.344v-57.914zM292.968 388.666h231.676v57.922h-231.676v-57.922zM931.608 911.432v-463.344h-57.914v463.344h-695.015v-810.852h405.426v-57.914h-405.426c-31.992 0-57.914 25.93-57.914 57.914v810.852c0 31.992 25.922 57.922 57.914 57.922h695.016c31.992 0 57.913-25.93 57.913-57.922z" fill="#828F98" p-id="1693"></path><path d="M750.503 365.826l-27.816-56.664-56.656-27.832 172.952-172.96 20.872 20.872-143.136 144.128 27.84 13.92 13.888 27.832 143.16-143.144 20.856 20.88-171.96 172.968zM944.343 171.978l-84.488-84.496 10.936-10.928c10.928-10.928 25.848-17.888 41.736-17.888 15.92 0 30.832 5.96 41.768 17.888 11.92 11.928 17.888 26.84 17.888 42.752 0 15.896-5.968 30.816-17.888 41.752l-9.952 10.92zM904.591 90.474l36.784 36.784c0.984-2.992 0.984-4.968 0.984-7.952 0-7.96-2.984-15.904-8.952-20.88-6.952-7.952-18.896-10.944-28.816-7.952v0zM602.407 429.442l40.768-123.256 27.832 8.936-21.872 67.592 66.592-21.856 8.952 27.832-122.272 40.752z" fill="#828F98" p-id="1694"></path></svg>